<svg t="1596787896264" class="icon" viewBox="0 0 1024 1024" version="1.1"
  xmlns="http://www.w3.org/2000/svg" p-id="2444" width="64" height="64">
  <path d="M844.1856 426.5984C761.856 151.7568 498.4832 165.6832 498.4832 165.6832c369.2544 181.248 203.5712 437.8624 203.5712 437.8624L487.6288 384.6144l81.92-89.4976-55.9104-51.8144-44.2368 39.936-82.7392-1.024-169.1648 171.6224 102.4 92.7744 63.6928-61.44L602.112 697.5488c-185.1392 121.856-354.304-78.848-354.304-78.848l-66.7648 58.1632 50.5856 59.392-8.6016 11.8784c-23.552-2.2528-33.3824 8.6016-33.3824 8.6016-58.1632 56.1152 11.8784 87.2448 11.8784 87.2448 67.9936 14.9504 64.7168-55.0912 64.7168-55.0912l12.9024-16.1792c255.1808 138.0352 405.9136 13.9264 405.9136 13.9264l73.1136 69.0176 99.9424-100.352-65.536-71.2704c-0.2048 0.2048 89.2928-130.8672 51.6096-257.4336z m0 0" fill="#FD0000" p-id="2445"></path>
</svg>